<svg id="Layer_1" data-name="Layer 1" xmlns="http://www.w3.org/2000/svg" viewBox="0 0 3423 606.7"><title>logo-onblue</title><g id="on_blue" data-name="on blue"><path d="M96.4,603.4A96.58,96.58,0,0,1,0,507V420.4H109v63a19,19,0,0,0,19,19H288a19,19,0,0,0,19-19h0V411.1c0-21.6-9.3-27.3-31.6-32.4L119.5,345.2c-40.2-8.7-67.6-20.5-86.1-37.1C12.3,289.2,2,263.1,2,228.4V120.8A96.58,96.58,0,0,1,98.4,24.4H313.6A96.58,96.58,0,0,1,410,120.8v79.6H301v-56a19,19,0,0,0-19-19H134a19,19,0,0,0-19,19h0v65.5c0,21.6,9.3,27.3,31.6,32.4l155.9,33.6c40.2,8.7,67.6,20.5,86.2,37.1,21.1,18.9,31.3,45,31.3,79.7V507a96.58,96.58,0,0,1-96.4,96.4Z" style="fill:#fff"/><path d="M621,603.4a88.13,88.13,0,0,1-88-88v-271H466v-86h69V72.8L639,50.4v108h99v86H641V496.9a18.52,18.52,0,0,0,18.5,18.5H738v88Z" style="fill:#fff"/><path d="M914.9,606.7c-43.6,0-72.5-9.1-90.8-28.5-18.5-19.6-27.1-50.6-27.1-97.5,0-44.4,9.9-76.5,30.4-98.2,18.2-19.3,44.8-31.1,83.9-37.1,41.7-6.4,85-9.8,145.9-13.4l3.8-.2V263.9a18.52,18.52,0,0,0-18.5-18.5h-105A18.52,18.52,0,0,0,919,263.9v26.5H813v-44a88.13,88.13,0,0,1,88-88h180a88.13,88.13,0,0,1,88,88v357H1061v-79l-7.3,10.3c-19.6,27.6-36.4,44.1-56.3,55C976,601.3,949.8,606.7,914.9,606.7Zm141.7-206.3c-48.2,5.1-97.1,14-120.5,20.3-23.8,6.4-32.3,14.6-32.3,48.3,0,35.7,4.7,46.8,34.2,46.8,54.6,0,83.8-15.7,117.7-33.9l5.4-2.9V400Z" style="fill:#fff"/><path d="M1347,603.4a88.13,88.13,0,0,1-88-88v-269a88.13,88.13,0,0,1,88-88h180a88.13,88.13,0,0,1,88,88v70H1507V269.9a18.52,18.52,0,0,0-18.5-18.5h-103a18.52,18.52,0,0,0-18.5,18.5v223a18.52,18.52,0,0,0,18.5,18.5h103a18.52,18.52,0,0,0,18.5-18.5V445.4h108v70a88.13,88.13,0,0,1-88,88Z" style="fill:#fff"/><polygon points="1979.8 603.4 1880.4 413 1812 498.6 1812 603.4 1706 603.4 1706 22.8 1812 0 1812 360.3 1965 158.4 2085.1 158.4 1947.9 329.3 2095.1 603.4 1979.8 603.4" style="fill:#fff"/><polygon points="2149 603.4 2149 23.4 2257 0.2 2257 603.4 2149 603.4" style="fill:#fff"/><path d="M2371,603.4v-445h108v445Zm-3-503V25L2482,.4v100Z" style="fill:#fff"/><path d="M2858,603.4V276.2c0-19.8-7.8-25.8-33.3-25.8a225.75,225.75,0,0,0-121.8,34.9l-1.9,1.2V603.4H2593v-445h108v75.3l7.3-10.5c18.2-26.3,36.7-43.5,58.1-53.9,21.1-10.3,46.2-14.8,81.2-14.8,43,0,72.9,8.5,91.5,25.9,18.4,17.2,26.9,43.4,26.9,82.5V603.4Z" style="fill:#fff"/><path d="M3144,603.4a88.13,88.13,0,0,1-88-88v-269a88.13,88.13,0,0,1,88-88h191a88.13,88.13,0,0,1,88,88v163H3164v89.5a18.52,18.52,0,0,0,18.5,18.5h114a18.52,18.52,0,0,0,18.5-18.5V463.4h108v52a88.13,88.13,0,0,1-88,88Zm38.5-359a18.52,18.52,0,0,0-18.5,18.5v76.5h151V262.9a18.52,18.52,0,0,0-18.5-18.5Z" style="fill:#fff"/></g></svg>